<?xml version="1.0" encoding="utf-8"?>
<!-- Generator: Adobe Illustrator 28.0.0, SVG Export Plug-In . SVG Version: 6.00 Build 0)  -->
<svg version="1.1" id="Layer_1" xmlns="http://www.w3.org/2000/svg" xmlns:xlink="http://www.w3.org/1999/xlink" x="0px" y="0px"
	 viewBox="0 0 775.2 100" style="enable-background:new 0 0 775.2 100;" xml:space="preserve">
<style type="text/css">
	.st0{display:none;}
	.st1{display:inline;}
	.st2{display:inline;fill:none;}
	.st3{font-family:'SportingGrotesque-Bold';}
	.st4{font-size:37.5553px;}
	.st5{font-family:'SportingGrotesque-Regular';}
	.st6{font-size:12px;}
	.st7{fill:none;}
	.st8{font-family:'Dogica_Pixel';}
	.st9{font-size:40px;}
	.st10{font-family:'NeulisCursive-Italic';}
	.st11{font-size:54.7047px;}
	.st12{enable-background:new    ;}
	.st13{fill:#FFFFFF;}
</style>
<g id="Layer_1_00000119089539946052568960000005303943389536713142_" class="st0">
	<g id="Layer_1_00000090276093819756378210000010670431653154065842_" class="st1">
		<g id="Layer_1_00000137825011056906411780000006006002828999248296_" class="st0">
			<rect x="76.1" y="-33.4" class="st2" width="629.2" height="201.8"/>
			<g class="st1">
				<text transform="matrix(1 0 0 1 137.7028 54.2197)" class="st3 st4">Recipes of the Week</text>
				<text transform="matrix(1 0 0 1 298.0901 89.2961)" class="st5 st6">10 weeks of delicious dishes</text>
			</g>
		</g>
		<g id="Layer_2_00000021835445684010811090000016307974674334453153_">
			<rect x="-0.6" y="22.2" class="st7" width="808.7" height="122.2"/>
			<text transform="matrix(1 0 0 1 238.7535 22.1108)" class="st8 st9">Stir-fried </text>
			<text transform="matrix(1 0 0 1 111.9535 87.7109)" class="st8 st9">Vermicelli Noodles</text>
			<text transform="matrix(1 0 0 1 681.9535 87.7109)" class="st10 st11"> </text>
			<rect x="205.2" y="114.1" class="st7" width="371" height="74.7"/>
			<text transform="matrix(1 0 0 1 337.6627 149.4216)" style="font-family:'GB18030Bitmap'; font-size:35.3319px;">炒米粉</text>
		</g>
	</g>
	<g id="Layer_2_00000072966149707711585220000009804642204603007129_" class="st1">
	</g>
</g>
<g id="Layer_2_00000065052967844120478150000002090008852839381925_">
	<rect x="93.6" y="34.3" class="st7" width="604.6" height="123.9"/>
	<g>
		<g class="st12">
			<path d="M103.2,70.9V30h16.6c2.2,0,4.3,0.2,6.1,0.5c1.8,0.4,3.5,0.9,4.9,1.5c1.4,0.7,2.6,1.5,3.6,2.4c1,1,1.7,2.1,2.2,3.3
				c0.5,1.3,0.7,2.7,0.7,4.2c0,1.4-0.2,2.7-0.7,3.9s-1.1,2.2-2,3.1c-0.9,0.9-2.1,1.6-3.5,2.1c-1.4,0.5-3,1-4.8,1.2v0.9
				c2.1,0.2,3.8,0.7,5.1,1.5c1.2,0.7,2.2,1.8,2.9,3c0.7,1.3,1.4,2.9,1.9,4.8l2.5,8.4h-9.9l-1.9-7.7c-0.4-1.7-1-3-1.7-3.9
				c-0.7-1-1.6-1.6-2.7-2c-1.1-0.4-2.4-0.6-3.9-0.6h-6.7v14.2H103.2z M112.1,50h7.2c2.8,0,5-0.5,6.5-1.6c1.5-1.1,2.3-2.7,2.3-5
				c0-2.3-0.7-3.9-2.1-5c-1.4-1.1-3.6-1.6-6.4-1.6h-7.4V50z"/>
			<path d="M160,71.8c-2.6,0-5-0.4-7.1-1.1c-2.1-0.7-3.9-1.8-5.3-3.2c-1.4-1.4-2.6-3.1-3.3-5.2c-0.8-2-1.1-4.4-1.1-7
				c0-2.6,0.4-5,1.1-7.2c0.7-2.2,1.8-4,3.2-5.6c1.4-1.6,3.1-2.8,5.1-3.7c2.1-0.9,4.3-1.3,6.8-1.3c2.6,0,4.8,0.4,6.7,1.2
				c1.9,0.8,3.5,2,4.8,3.6c1.3,1.6,2.2,3.5,2.9,5.9c0.6,2.3,0.8,5,0.7,8.1l-25.5,0.2v-4.8l20.4-0.2l-3.1,2.4
				c0.2-2.1,0.1-3.9-0.5-5.3c-0.6-1.4-1.4-2.4-2.5-3.1c-1.1-0.7-2.3-1-3.7-1c-1.6,0-2.9,0.4-4.1,1.3c-1.2,0.8-2.1,2.1-2.8,3.7
				c-0.7,1.6-1,3.5-1,5.7c0,3.6,0.8,6.1,2.3,7.8c1.5,1.6,3.6,2.4,6.1,2.4c1.2,0,2.1-0.2,2.9-0.5c0.8-0.3,1.5-0.7,2-1.2
				c0.5-0.5,1-1.1,1.3-1.7s0.6-1.2,0.8-1.9l7.8,1.7c-0.4,1.5-0.9,2.9-1.6,4.2c-0.7,1.2-1.7,2.3-2.9,3.2c-1.2,0.9-2.6,1.5-4.3,2
				C164.2,71.6,162.2,71.8,160,71.8z"/>
			<path d="M195.9,71.8c-2.8,0-5.3-0.4-7.3-1.2c-2.1-0.8-3.8-2-5.2-3.4c-1.4-1.5-2.4-3.3-3.2-5.3c-0.7-2-1.1-4.3-1.1-6.8
				c0-2.6,0.4-4.9,1.1-7.1c0.7-2.1,1.8-4,3.2-5.5c1.4-1.5,3.1-2.8,5.2-3.6c2.1-0.9,4.4-1.3,7.1-1.3c2.6,0,4.9,0.4,6.9,1.3
				c2,0.9,3.6,2.1,4.8,3.6c1.2,1.5,2.1,3.4,2.5,5.4l-8.2,2.7c-0.2-1.3-0.5-2.4-1.1-3.3c-0.5-0.9-1.3-1.6-2.2-2.1
				c-0.9-0.5-2-0.7-3.2-0.7c-1.1,0-2.1,0.2-3,0.7c-0.9,0.5-1.6,1.1-2.2,2c-0.6,0.9-1.1,2-1.4,3.3c-0.3,1.3-0.5,2.7-0.5,4.3
				c0,2.2,0.3,4.1,0.9,5.6c0.6,1.5,1.5,2.7,2.7,3.5c1.2,0.8,2.6,1.2,4.4,1.2c1.7,0,3-0.3,3.9-1c1-0.7,1.7-1.5,2.2-2.5s0.8-2,0.9-3.2
				l7.8,1.7c-0.2,1.6-0.6,3.1-1.3,4.5c-0.7,1.4-1.6,2.6-2.8,3.7c-1.2,1.1-2.7,1.9-4.5,2.4C200.5,71.5,198.4,71.8,195.9,71.8z"/>
			<path d="M220.5,33.5c-1.7,0-3.1-0.4-4-1.1c-0.9-0.7-1.4-1.8-1.4-3.2c0-1.4,0.5-2.5,1.4-3.3c0.9-0.7,2.3-1.1,4-1.1
				c1.7,0,3.1,0.4,4,1.1c1,0.7,1.4,1.8,1.4,3.3c0,1.4-0.5,2.5-1.4,3.2C223.6,33.1,222.2,33.5,220.5,33.5z M216,70.9V38.4h8.9v32.5
				H216z"/>
			<path d="M233.2,81.3V54.9V38.4h7.4v9.1l1.1,0.1c0.4-2.2,1.1-4,2-5.5c0.9-1.5,2.1-2.6,3.6-3.3s3.2-1.1,5.1-1.1
				c2.9,0,5.4,0.7,7.4,2.1c2.1,1.4,3.6,3.4,4.7,6c1.1,2.6,1.6,5.6,1.6,9.1c0,3.2-0.5,6.1-1.5,8.6c-1,2.5-2.5,4.6-4.4,6.1
				c-1.9,1.5-4.4,2.3-7.4,2.3c-2.1,0-3.8-0.4-5.2-1.2c-1.4-0.8-2.6-1.9-3.5-3.3c-0.9-1.4-1.7-3.2-2.3-5.2h-1.2
				c0.2,1.1,0.5,2.3,0.7,3.4c0.2,1.2,0.4,2.3,0.5,3.4c0.1,1.1,0.2,2.2,0.2,3.2v9.1H233.2z M249.9,64.7c1.5,0,2.7-0.4,3.8-1.2
				c1-0.8,1.8-2,2.4-3.5c0.6-1.5,0.9-3.2,0.9-5.1c0-2.1-0.3-3.8-0.9-5.3c-0.6-1.5-1.4-2.6-2.5-3.4c-1.1-0.8-2.3-1.2-3.8-1.2
				c-1.4,0-2.5,0.3-3.5,0.9c-1,0.6-1.8,1.3-2.4,2.3c-0.6,1-1.1,2-1.4,3.1c-0.3,1.1-0.4,2.1-0.4,3.1v1.2c0,0.8,0.1,1.6,0.3,2.4
				c0.2,0.8,0.5,1.7,1,2.5c0.4,0.8,1,1.5,1.6,2.2c0.6,0.6,1.4,1.2,2.2,1.6C248,64.5,248.9,64.7,249.9,64.7z"/>
			<path d="M287.9,71.8c-2.6,0-5-0.4-7.1-1.1c-2.1-0.7-3.9-1.8-5.3-3.2c-1.4-1.4-2.6-3.1-3.3-5.2c-0.8-2-1.1-4.4-1.1-7
				c0-2.6,0.4-5,1.1-7.2c0.7-2.2,1.8-4,3.2-5.6c1.4-1.6,3.1-2.8,5.1-3.7c2.1-0.9,4.3-1.3,6.8-1.3c2.6,0,4.8,0.4,6.7,1.2
				c1.9,0.8,3.5,2,4.8,3.6c1.3,1.6,2.2,3.5,2.9,5.9c0.6,2.3,0.8,5,0.7,8.1l-25.5,0.2v-4.8l20.4-0.2l-3.1,2.4
				c0.2-2.1,0.1-3.9-0.5-5.3c-0.6-1.4-1.4-2.4-2.5-3.1c-1.1-0.7-2.3-1-3.7-1c-1.6,0-2.9,0.4-4.1,1.3c-1.2,0.8-2.1,2.1-2.8,3.7
				c-0.7,1.6-1,3.5-1,5.7c0,3.6,0.8,6.1,2.3,7.8c1.5,1.6,3.6,2.4,6.1,2.4c1.2,0,2.1-0.2,2.9-0.5c0.8-0.3,1.5-0.7,2-1.2
				c0.5-0.5,1-1.1,1.3-1.7s0.6-1.2,0.8-1.9l7.8,1.7c-0.4,1.5-0.9,2.9-1.6,4.2c-0.7,1.2-1.7,2.3-2.9,3.2c-1.2,0.9-2.6,1.5-4.3,2
				C292,71.6,290.1,71.8,287.9,71.8z"/>
			<path d="M337.8,71.8c-3.2,0-6.1-0.7-8.6-2c-2.5-1.3-4.5-3.2-5.9-5.8c-1.4-2.5-2.1-5.7-2.1-9.5c0-3.8,0.7-7,2.1-9.5
				c1.4-2.5,3.4-4.4,5.9-5.7c2.5-1.3,5.3-1.9,8.5-1.9c3.2,0,6.1,0.6,8.6,1.9c2.5,1.3,4.5,3.2,5.9,5.7c1.4,2.5,2.1,5.7,2.1,9.5
				c0,3.9-0.7,7.1-2.2,9.6c-1.5,2.5-3.5,4.4-6,5.6C343.8,71.2,341,71.8,337.8,71.8z M338.1,65.2c1.6,0,3-0.4,4.1-1.1
				c1.1-0.8,1.9-1.9,2.5-3.4c0.6-1.5,0.8-3.3,0.8-5.5c0-2.3-0.3-4.2-0.9-5.8c-0.6-1.6-1.5-2.8-2.6-3.7c-1.2-0.9-2.6-1.3-4.4-1.3
				c-1.5,0-2.9,0.4-4,1.1c-1.1,0.7-2,1.9-2.5,3.4c-0.5,1.5-0.8,3.4-0.8,5.6c0,3.5,0.7,6.1,2.1,8C333.7,64.3,335.7,65.2,338.1,65.2z"
				/>
			<path d="M363.4,70.9V50.1h-5.3v-6.6l8.7,0.4v-1.2c-1.4-0.3-2.6-0.8-3.6-1.6c-0.9-0.8-1.6-1.7-2-2.7c-0.4-1-0.7-2.1-0.7-3.3
				c0-1.8,0.5-3.3,1.4-4.6c0.9-1.3,2.2-2.3,3.9-3c1.7-0.7,3.6-1.1,5.8-1.1c1.9,0,3.7,0.2,5.2,0.7c1.5,0.5,2.8,1,3.7,1.7l-0.5,8
				c-1-0.7-2.1-1.2-3.3-1.7c-1.2-0.5-2.4-0.7-3.6-0.7c-1.2,0-2.2,0.3-3,1c-0.8,0.7-1.2,1.8-1.2,3.3c0,1.1,0.2,1.9,0.6,2.5
				c0.4,0.6,1,1,1.6,1.3c0.7,0.3,1.3,0.4,1.9,0.5h7.4v7H372v20.8H363.4z"/>
			<path d="M412,71.7c-3.6,0-6.3-1-8-2.9c-1.7-1.9-2.6-5-2.6-9.2V45.4h-4.7l0.1-7.1h3.2c1.2,0,2.2-0.2,2.8-0.6c0.6-0.4,1-1.1,1.2-2
				l0.7-4.6h5.1v7.3h8.2v7.3h-8.2v13.6c0,1.4,0.4,2.5,1.1,3.2c0.7,0.7,1.8,1.1,3.2,1.1c0.8,0,1.6-0.1,2.3-0.3
				c0.7-0.2,1.3-0.5,1.9-0.8v8.4c-1.3,0.4-2.5,0.6-3.5,0.7C413.8,71.6,412.8,71.7,412,71.7z"/>
			<path d="M424.5,70.9V50.4V26.6h8.9v10.2c0,0.9,0,1.7-0.1,2.6c-0.1,0.9-0.2,1.8-0.3,2.7c-0.1,0.9-0.3,1.9-0.4,2.8
				s-0.3,1.9-0.5,2.9h1.4c0.6-2.1,1.3-4,2.2-5.5c0.9-1.5,2-2.7,3.4-3.5c1.4-0.8,3.2-1.2,5.3-1.2c3.8,0,6.7,1.3,8.6,4
				c1.9,2.7,2.9,6.7,2.9,12.2v17.2H447V55.1c0-3.4-0.5-6-1.5-7.7c-1-1.7-2.6-2.5-4.6-2.5c-1.7,0-3,0.5-4.1,1.5c-1.1,1-1.9,2.3-2.4,4
				c-0.6,1.7-0.9,3.5-0.9,5.6v14.9H424.5z"/>
			<path d="M478.8,71.8c-2.6,0-5-0.4-7.1-1.1s-3.9-1.8-5.3-3.2c-1.4-1.4-2.6-3.1-3.3-5.2c-0.8-2-1.1-4.4-1.1-7c0-2.6,0.4-5,1.1-7.2
				c0.7-2.2,1.8-4,3.2-5.6c1.4-1.6,3.1-2.8,5.1-3.7c2.1-0.9,4.3-1.3,6.8-1.3c2.6,0,4.8,0.4,6.7,1.2c1.9,0.8,3.5,2,4.8,3.6
				c1.3,1.6,2.2,3.5,2.9,5.9c0.6,2.3,0.8,5,0.7,8.1l-25.5,0.2v-4.8l20.4-0.2l-3.1,2.4c0.2-2.1,0.1-3.9-0.5-5.3s-1.4-2.4-2.5-3.1
				c-1.1-0.7-2.3-1-3.7-1c-1.6,0-2.9,0.4-4.1,1.3c-1.2,0.8-2.1,2.1-2.8,3.7c-0.7,1.6-1,3.5-1,5.7c0,3.6,0.8,6.1,2.3,7.8
				c1.5,1.6,3.6,2.4,6.1,2.4c1.2,0,2.1-0.2,2.9-0.5c0.8-0.3,1.5-0.7,2-1.2c0.5-0.5,1-1.1,1.3-1.7c0.3-0.6,0.6-1.2,0.8-1.9l7.8,1.7
				c-0.4,1.5-0.9,2.9-1.6,4.2c-0.7,1.2-1.7,2.3-2.9,3.2c-1.2,0.9-2.6,1.5-4.3,2C483,71.6,481,71.8,478.8,71.8z"/>
			<path d="M520.7,70.9L511.4,30h9.7l6.1,33.3h0.6L535,30h11.3l7.3,33.3h0.6l6.1-33.3h9.2l-9.4,40.9h-12.5l-6.9-33.3h-0.6l-6.9,33.3
				H520.7z"/>
			<path d="M590.3,71.8c-2.6,0-5-0.4-7.1-1.1c-2.1-0.7-3.9-1.8-5.3-3.2c-1.4-1.4-2.6-3.1-3.3-5.2c-0.8-2-1.1-4.4-1.1-7
				c0-2.6,0.4-5,1.1-7.2s1.8-4,3.2-5.6c1.4-1.6,3.1-2.8,5.1-3.7s4.3-1.3,6.8-1.3c2.6,0,4.8,0.4,6.7,1.2c1.9,0.8,3.5,2,4.8,3.6
				c1.3,1.6,2.2,3.5,2.9,5.9c0.6,2.3,0.8,5,0.7,8.1l-25.5,0.2v-4.8l20.4-0.2l-3.1,2.4c0.2-2.1,0.1-3.9-0.5-5.3
				c-0.6-1.4-1.4-2.4-2.5-3.1c-1.1-0.7-2.3-1-3.7-1c-1.6,0-2.9,0.4-4.1,1.3c-1.2,0.8-2.1,2.1-2.8,3.7c-0.7,1.6-1,3.5-1,5.7
				c0,3.6,0.8,6.1,2.3,7.8s3.6,2.4,6.1,2.4c1.2,0,2.1-0.2,2.9-0.5c0.8-0.3,1.5-0.7,2-1.2c0.5-0.5,1-1.1,1.3-1.7
				c0.3-0.6,0.6-1.2,0.8-1.9l7.8,1.7c-0.4,1.5-0.9,2.9-1.6,4.2c-0.7,1.2-1.7,2.3-2.9,3.2c-1.2,0.9-2.6,1.5-4.3,2
				S592.6,71.8,590.3,71.8z"/>
			<path d="M626.4,71.8c-2.6,0-5-0.4-7.1-1.1c-2.1-0.7-3.9-1.8-5.3-3.2c-1.4-1.4-2.6-3.1-3.3-5.2c-0.8-2-1.1-4.4-1.1-7
				c0-2.6,0.4-5,1.1-7.2s1.8-4,3.2-5.6c1.4-1.6,3.1-2.8,5.1-3.7s4.3-1.3,6.8-1.3c2.6,0,4.8,0.4,6.7,1.2c1.9,0.8,3.5,2,4.8,3.6
				c1.3,1.6,2.2,3.5,2.9,5.9c0.6,2.3,0.8,5,0.7,8.1l-25.5,0.2v-4.8l20.4-0.2l-3.1,2.4c0.2-2.1,0.1-3.9-0.5-5.3
				c-0.6-1.4-1.4-2.4-2.5-3.1c-1.1-0.7-2.3-1-3.7-1c-1.6,0-2.9,0.4-4.1,1.3c-1.2,0.8-2.1,2.1-2.8,3.7c-0.7,1.6-1,3.5-1,5.7
				c0,3.6,0.8,6.1,2.3,7.8s3.6,2.4,6.1,2.4c1.2,0,2.1-0.2,2.9-0.5c0.8-0.3,1.5-0.7,2-1.2c0.5-0.5,1-1.1,1.3-1.7
				c0.3-0.6,0.6-1.2,0.8-1.9l7.8,1.7c-0.4,1.5-0.9,2.9-1.6,4.2c-0.7,1.2-1.7,2.3-2.9,3.2c-1.2,0.9-2.6,1.5-4.3,2
				S628.6,71.8,626.4,71.8z"/>
			<path d="M647.3,70.9V26.5h8.8v24.7c1.2-0.8,2.5-1.8,3.7-2.8c1.2-1,2.3-2.1,3.3-3.2c1-1.1,1.8-2.3,2.6-3.4c0.8-1.2,1.4-2.3,2-3.4
				h10.2c-0.6,1.6-1.4,3.2-2.4,4.7s-2.2,3-3.6,4.4s-3,2.5-4.8,3.4c-1.8,1-3.8,1.6-6,2v1.1c2.7-0.5,5-0.4,6.9,0.2
				c1.8,0.6,3.3,1.5,4.5,2.8c1.2,1.2,2.1,2.7,2.9,4.3c0.7,1.6,1.4,3.3,1.9,4.9l1.5,4.8h-9.7l-0.9-3c-0.6-2-1.2-3.8-1.9-5.3
				c-0.7-1.5-1.6-2.7-2.8-3.6c-1.2-0.8-2.7-1.3-4.6-1.3h-2.5v13.2H647.3z"/>
		</g>
	</g>
	<path d="M67.3,43.2c0.1-0.1,0.2-0.1,0.2-0.1c0.1,0,0.2-0.1,0.3-0.1c0,0.1,0,0.3-0.1,0.4c-0.6,0.3-0.4,0.9-0.5,1.4
		c0,0.2,0,0.5,0,0.7c0,0.6,0,0.6,0.7,0.6c-0.1,0.5-0.2,1-0.3,1.5c-0.2,1.2-0.3,2.4-0.4,3.5c-0.1,0.5-0.2,1-0.3,1.5v0.1
		c-0.1,0.5-0.1,0.9-0.2,1.4c-0.1,0.4-0.2,0.9-0.2,1.3c0,0.5,0.1,1,0.2,1.4c0,0.1,0,0.3,0,0.4c-0.1,0.8-0.1,1.6-0.2,2.4v0.1
		c0,0.3,0.1,0.7,0.1,1c-0.1,0.6,0.3,1.1,0.2,1.7c0,1,0,1.9,0,2.9c0,0.2,0,0.3,0,0.5s0,0.4-0.2,0.5c-0.1,0.1-0.2,0.5-0.1,0.6
		c0.3,0.3,0.2,0.5,0.1,0.8c0.7,0.3,0.7,0.3,0.6,1.1c-0.1,0.8-0.2,1.7-0.2,2.5c-0.1,3-0.3,5.9,0,8.9c0.1,1,0.2,1.9,0.4,2.9
		c0,0.1,0,0.2,0,0.2c-0.4,0.6-0.2,1.4-0.3,2.1c-0.1,1-0.5,1.9-1.1,2.7c-0.6,0.7-1.8,1-2.8,0.6c-1-0.4-1.4-1.2-1.5-2.1
		c-0.2-0.9-0.2-1.8-0.3-2.6v-0.1c-0.5-0.7-0.1-1.5,0-2.2c0.1-1.3,0.4-2.6,0.6-3.9c0.1-0.9,0.2-1.8,0.3-2.7c0.1-2.2,0.2-4.4,0.4-6.5
		c0.1-1.4,0.4-2.7,0.6-4.1c0.2-1.7,0.6-3.4,0.7-5.1c0.3-2.7,0.5-5.5,0.7-8.2c0.1-2,0-4-0.3-6c-0.3-2.1-1-4.2-1.8-6.2
		c-0.5-1.2-1-2.4-1.6-3.6c-1.2-2.4-1.5-4.9-1.3-7.5c0.1-1.9,0.3-3.8,0.9-5.6c0.4-1.2,1-2.4,1.5-3.6c0.5-1.1,1.2-2.2,2.1-3
		c0.9-0.8,2-1.6,3.2-1.9c1-0.2,2,0,3,0.5c0.9,0.6,1.6,1.4,2.2,2.3s1,2,1.3,3.1c0.4,1.4,0.8,2.7,0.9,4.2c0.1,0.9,0,1.8,0,2.6
		c-0.1,1-0.2,1.9-0.4,2.9c-0.1,0.7-0.2,1.4-0.4,2c-0.1,0.5-0.4,1-0.6,1.5c-0.6,1.2-1.1,2.5-1.7,3.7c-0.1,0.1,0,0.3-0.1,0.4
		c-0.1,0.3,0,0.7-0.5,0.7c-0.1,0-0.2,0.2-0.3,0.3c-0.5,0.6-1,1.2-1.4,1.8c-0.2,0.3-0.3,0.6-0.6,0.9c-0.3,0.4-0.7,0.8-1,1.1
		c-0.4,0.3-0.7,0.6-0.4,1.1C67.4,42.8,67.3,43,67.3,43.2z M62.4,27.1c0,0.7-0.4,1.4-0.1,2c-0.1,0.4-0.1,0.6-0.2,0.9h0.1
		c0.1-0.2,0.2-0.3,0.3-0.5c0.6,0.3,0.2,0.6,0,0.8c0.1,0.1,0.2,0.2,0.3,0.2c0,0.2-0.1,0.4-0.1,0.5c0.1,0,0.1,0,0.2,0.1
		c0.3-0.5,0.3-1.2,0.5-1.8h0.1c0.1,0.5,0.2,0.9,0.3,1.4c-0.2,0-0.3,0-0.4,0c0,0.2,0.1,0.4,0.1,0.7c0,0,0.2,0,0.3,0
		c0.1-0.1,0.3-0.4,0.4-0.4c0.4,0.1,0.3-0.2,0.4-0.4c0.1-0.2,0.2-0.4,0.4-0.6c0.1,0.2,0.3,0.4,0.4,0.5c0,0,0,0,0.1,0
		c0.1-0.2,0.2-0.4,0.3-0.6c0.1,0.2,0.2,0.3,0.3,0.4c0.7-0.3,0-1,0.6-1.3c0.1,0.1,0.2,0.1,0.3,0.2c0.1-0.6,0.2-1.1,0.3-1.5
		c-0.2-0.5-0.4-1-0.5-1.6s0-1.3,0-2c0-0.1,0-0.2-0.1-0.2c-0.3-0.1-0.3-0.4-0.3-0.7c0-0.4-0.3-0.5-0.6-0.6c-0.3-0.1-0.6,0-0.7,0.4
		c-0.1,0.3-0.3,0.5-0.4,0.7s-0.2,0.3-0.3,0.4c-0.1,0.2-0.2,0.3-0.4,0.6c0.1,0.7-0.2,1.8-0.5,1.8c-0.1-0.2-0.2-0.3-0.2-0.5
		c-0.2,0.1-0.3,0.2-0.5,0.3c0,0,0,0.1,0,0.2c-0.1,0.3-0.1,0.6-0.2,1h-0.1C62.5,27.5,62.5,27.3,62.4,27.1z M66.4,87.1
		C66.9,86,67,85,67,83.9c0-0.1-0.1-0.2-0.2-0.2c-0.7-0.1-1.4,0-2.1,0.2c0.2,0.1,0.5,0.2,0.7,0.3c0.1,0,0.3,0,0.4,0
		c-0.1,0.2-0.1,0.3-0.2,0.5c-0.1,0.1-0.1,0.2-0.2,0.3c-0.5,0.3-0.6,0.7-0.3,1.2c0.1,0,0.2,0,0.5,0c-0.1,0.2-0.1,0.3-0.1,0.4
		c-0.3,0.4-0.1,0.6,0.2,0.9c0.1,0.1,0.3,0.1,0.3,0c0.1,0,0.1-0.2,0.2-0.3c0.1-0.1,0.1-0.3,0.1-0.5h0.1
		C66.4,86.8,66.4,86.9,66.4,87.1z M73.9,28.1c-0.4,0-0.6,0-0.9-0.1c0,0.1,0,0.3,0,0.4c-0.1,0.7-0.1,1.5-0.3,2.2
		c0,0.3-0.1,0.6,0.2,0.6c0.2,0,0.6-0.2,0.7-0.4c0.1-0.4,0.1-0.8,0.1-1.2c0-0.1,0.1-0.2,0.1-0.3c0.3,0.1,0.2-0.1,0.2-0.3
		C74,28.7,73.9,28.4,73.9,28.1z M60.2,32.6L60.2,32.6c0-0.9-0.2-1.9-0.3-2.8c-0.1,0-0.1,0-0.2,0C59.8,30.8,59.9,31.7,60.2,32.6z
		 M67.3,47.4c-0.3,0.2-0.4,0.8-0.3,1l0.1,0.1l0.1-0.1C67.2,48,67.3,47.7,67.3,47.4z M67.2,48.7c-0.5,0.1-0.5,0.3-0.2,0.7
		C67.1,49.2,67.2,48.9,67.2,48.7z"/>
	<path d="M61.4,34.9C61.1,33.9,61,33,61,32c0.1,0,0.1,0,0.2,0c0.1,0.9,0.3,1.9,0.4,2.8C61.5,34.9,61.4,34.9,61.4,34.9z"/>
	<path class="st13" d="M55.8,49.5c-0.1,0.3-0.1,0.5-0.2,0.7C55.3,49.8,55.3,49.7,55.8,49.5z"/>
	<path class="st13" d="M40.4,89.5c0.2-0.5-0.2-1,0.2-1.5C40.6,88.5,40.8,89,40.4,89.5z"/>
	<path class="st13" d="M34.9,44.8c0-0.5,0-1.1,0-1.6H35C35,43.7,35,44.3,34.9,44.8C35,44.8,34.9,44.8,34.9,44.8z"/>
	<path class="st13" d="M22.6,59.8c0,0.4,0,0.7,0,1.1h-0.1c0-0.4,0-0.7-0.1-1.1C22.5,59.8,22.6,59.8,22.6,59.8z"/>
	<path class="st13" d="M22.5,62.6c0-0.4,0.1-0.8,0.1-1.2c0,0,0,0,0.1,0c0,0.4,0,0.8,0,1.2C22.6,62.6,22.5,62.6,22.5,62.6z"/>
	<path class="st13" d="M22.5,55.5c0,0.3,0,0.7,0,1h-0.1C22.4,56.2,22.4,55.8,22.5,55.5C22.4,55.5,22.5,55.5,22.5,55.5z"/>
	<path d="M725,21.5c0.1,0.7,0.2,1.3,0.2,2c0.1,2.4,0.2,4.8,0.4,7.2c0.1,1.6,0.2,3.1,0.3,4.7c0,0.4,0.3,0.6,0.8,0.6s0.5-0.3,0.4-0.6
		c0-0.6,0-1.3,0-1.9c0-2.4-0.1-4.7-0.1-7.1c0-1,0.1-2,0.1-2.9c0-0.7,0-1.3,0-2c0-0.3,0.1-0.4,0.4-0.5c0.3,0,0.6,0,0.7,0.3
		c0.3,1.1,0.6,2.1,0.8,3.2c0.7,2.7,0.8,5.4,0.8,8.2c0,0.7-0.1,1.5-0.1,2.2c0,1.4-0.3,2.7-0.6,4s-0.7,2.5-1,3.8
		c-0.2,0.7-0.3,1.4-0.7,2c-0.1,0.2,0,0.5-0.1,0.8c-0.1,0.5-0.3,1-0.4,1.5c-0.3,1.2-0.6,2.3-0.7,3.5c-0.3,1.9-0.7,3.9-0.6,5.9
		c0,1.3,0.1,2.7,0.2,4c0.1,1.9,0.2,3.8,0.3,5.7c0.1,1.3,0,2.6,0.1,4c0.1,1.7,0.1,3.4,0.2,5.1c0,0.3,0.1,0.5,0.2,0.8
		c0.1,0.2,0.1,0.4,0.1,0.6c0,1.1,0,2.3,0.1,3.4c0.1,1.6,0.2,3.2,0.3,4.8c0,0.6,0.1,1.3,0.1,1.9c0,1.1,0.1,2.2,0.1,3.2
		c-0.1,1.3-0.2,2.6-0.3,3.9c-0.1,0.6-0.4,0.9-1,1c-0.5,0-1,0.1-1.5,0.1c-0.7,0-1-0.5-1.2-1c-0.2-0.4-0.3-0.9-0.4-1.3
		c-0.2-0.6-0.4-1.3-0.5-1.9c-0.1-0.5-0.1-1.1-0.1-1.6s0-1.1,0-1.6c0-1.7,0.1-3.3,0.1-5c0-1.2,0.1-2.4,0.1-3.6c0-0.9-0.1-1.8,0.1-2.7
		c0.6-2.8,0.2-5.6,0.3-8.3c0.1-2.8,0.2-5.6,0.2-8.5c0-2.1-0.3-4.3-0.6-6.4c-0.3-1.9-0.8-3.7-1.2-5.6c-0.3-1.2-0.7-2.4-1.1-3.5
		c-0.5-1.3-1-2.5-1.5-3.8c-0.7-2-1-4.2-1.1-6.3c0-1-0.1-2-0.1-2.9c0.1-2.3,0.3-4.6,0.8-6.9c0.1-0.5,0.2-1.1,0.4-1.6
		c0.1-0.3,0.5-0.5,0.8-0.7c0.4-0.2,0.5-0.1,0.6,0.4c0.1,1.3,0.2,2.5,0.3,3.8c0.1,1.1,0.1,2.1,0.1,3.2c0,1,0.1,2.1,0.1,3.1
		c0,1,0,2,0,3c0,0.2,0,0.5,0.2,0.6c0.2,0.2,0.5,0.3,0.7,0.3c0.3,0,0.4-0.3,0.4-0.5c0-0.8,0-1.5,0-2.3c0-1.5,0-3,0-4.5
		c0-1.8,0.1-3.6,0.1-5.4c0-0.6,0.1-1.1,0.2-1.7c0-0.1,0.2-0.2,0.3-0.3c0.1,0.1,0.2,0.2,0.2,0.3c0.1,2.1,0.2,4.1,0.3,6.2
		c0.1,1.7,0.2,3.4,0.3,5.2c0,0.8,0.1,1.7,0.2,2.5c0,0.4,0.4,0.4,0.7,0.4s0.5-0.2,0.5-0.5c0-0.6,0-1.3,0-1.9c0-0.8,0-1.5,0-2.3
		c0-2,0-4.1,0-6.1c0-1.1,0.2-2.2,0.3-3.3C725,21.8,725.1,21.6,725,21.5C724.9,21.5,724.9,21.5,725,21.5z M726,92.5
		c0.4-0.4,0.2-1,0.2-1.5C725.8,91.4,726.2,92,726,92.5z"/>
	<path d="M709.9,92.1c-1.1,0-2.1,0-3.1,0c0-0.2,0-0.4,0-0.6c0-1,0-1.9-0.1-2.9c0-0.4-0.1-0.8-0.2-1.2c0-0.6,0-1.3,0-1.9
		c0-0.9,0-1.9,0-2.8c0-4,0-7.9-0.1-11.9c0-1.1-0.2-2.2,0-3.3c0.1-1,0.2-2,0.2-3c0-1.2,0-2.3,0-3.5c0-3.2,0-6.4-0.1-9.6
		c0-3.1,0-6.3,0-9.4c0-1.9,0-3.9-0.1-5.8c0-1,0.1-2.1,0-3.1c0-1.2-0.1-2.4-0.1-3.6c0-2.3,0.1-4.5,0.2-6.8c0-0.7,0-1.4,0-2.1
		c0.1-1.7,0.2-3.4,0.2-5c0-0.9,0.1-1.8,0.1-2.6c0-1.4,0.1-2.9,0.1-4.3V8.6c0-0.2,0.1-0.4,0.4-0.4c0.3,0,0.3,0.2,0.4,0.4
		c0,1.5,0.1,3.1,0.2,4.6c0.1,3.4,0.3,6.8,0.4,10.2c0.1,3.2,0.2,6.4,0.2,9.6c0.1,3.5,0.2,6.9,0.3,10.4c0.1,2.4,0.1,4.8,0.2,7.2
		c0.1,2.4,0.1,4.9,0.2,7.3c0,1.4,0,2.8,0.1,4.3c0,1,0.1,1.9,0.1,2.9c0,0.8,0.1,1.6,0.2,2.4c0.2,1,0,2,0,3.1c0,1.9,0.1,3.9,0.2,5.8
		c0,1.6,0,3.1,0.1,4.7c0,2,0.1,3.9,0.2,5.9c0,0.4,0.1,0.9-0.2,1.3c-0.1,0.1,0,0.3,0,0.4C709.9,89.8,709.9,90.9,709.9,92.1z
		 M707.9,46.4L707.9,46.4c0.1-0.5,0.1-1.1,0.1-1.6h-0.1C707.9,45.3,707.9,45.9,707.9,46.4z M708.3,62.8c-0.1,0-0.1,0-0.2,0
		c0,0.4,0,0.7,0.1,1.1h0.1C708.3,63.5,708.3,63.2,708.3,62.8z M708.1,65.6L708.1,65.6c0.1-0.4,0.1-0.8,0.1-1.2c0,0,0,0-0.1,0
		C708.2,64.8,708.1,65.2,708.1,65.6z M708.1,58.5C708.1,58.5,708.1,58.4,708.1,58.5c-0.1,0.3-0.1,0.7-0.1,1h0.1
		C708.1,59.2,708.1,58.8,708.1,58.5z"/>
	<path d="M711.5,32.8c0.1,1.2,0.1,2.5,0.2,3.7c0.1,2.1,0.3,4.2,0.4,6.3c0.1,1.3,0.1,2.6,0.2,3.9c0.1,2.2,0.3,4.4,0.4,6.6
		c0.1,1.7,0.3,3.4,0.4,5.1c0.1,0.7,0.1,1.4,0.1,2.2c0.1,1.9,0.2,3.8,0.3,5.8c0,0.4,0.2,0.9,0.3,1.3c0.1,0.9,0.2,1.8,0.2,2.7
		c0.1,2.5,0.2,5.1,0.4,7.6c0.1,2.1,0.2,4.2,0.3,6.4c0.1,1,0.1,1.9,0.1,2.9c0,0.4-0.1,0.8-0.1,1.2c0,1.2,0.1,2.4,0.1,3.7
		c0,0.1-0.2,0.3-0.3,0.3c-0.3,0-0.6-0.1-0.9-0.1c-0.5,0-1.1,0-1.6,0.1c-0.3,0-0.4-0.1-0.5-0.3c-0.1-0.2-0.1-0.4-0.1-0.6
		c0-1,0.1-2.1-0.1-3.1c-0.4-1.5-0.3-3-0.4-4.4c-0.1-2.1-0.1-4.3-0.1-6.4c-0.1-2.2-0.2-4.4-0.3-6.7c0-1.1-0.2-2.1,0-3.2
		c0.1-0.9,0.2-1.7,0.1-2.6c-0.1-2.5-0.2-4.9-0.3-7.4c0-0.9,0-1.8-0.1-2.7c-0.1-1.7-0.3-3.4-0.3-5.1c-0.1-1.5-0.1-3-0.2-4.4
		c-0.1-1.9-0.2-3.8-0.2-5.7c-0.1-1.5-0.1-3-0.1-4.5c-0.1-2.2-0.2-4.4-0.3-6.6c0-1.3,0-2.5-0.1-3.8c0-3-0.1-5.9-0.1-8.9
		c0-2.3-0.1-4.7-0.2-7c0-0.2,0.1-0.4,0.2-0.5c0.3-0.2,0.6,0,0.6,0.4c0.1,0.8,0.1,1.7,0.2,2.5c0.1,1.4,0.2,2.7,0.3,4.1
		c0.2,2.8,0.5,5.6,0.7,8.3C711,26.9,711.3,29.8,711.5,32.8L711.5,32.8z"/>
	<path class="st13" d="M738.9,36.2c-0.3-0.9-0.4-1.9-0.4-2.8c0.1,0,0.1,0,0.2,0c0.1,0.9,0.3,1.9,0.4,2.8
		C739,36.1,738.9,36.1,738.9,36.2z"/>
	<path class="st13" d="M733.3,50.8c-0.1,0.3-0.1,0.5-0.2,0.7C732.8,51.1,732.8,51,733.3,50.8z"/>
	<path class="st13" d="M726,92.5c0.2-0.5-0.2-1,0.2-1.5C726.2,91.5,726.4,92,726,92.5z"/>
	<path class="st13" d="M712.4,46.1c0-0.5,0-1.1,0-1.6h0.1C712.5,45,712.5,45.6,712.4,46.1C712.5,46.1,712.4,46.1,712.4,46.1z"/>
	<path class="st13" d="M700.1,61.1c0,0.4,0,0.7,0,1.1H700c0-0.4,0-0.7-0.1-1.1C700,61.1,700.1,61.1,700.1,61.1z"/>
	<path class="st13" d="M700,63.9c0-0.4,0.1-0.8,0.1-1.2c0,0,0,0,0.1,0c0,0.4,0,0.8,0,1.2C700.1,63.9,700,63.9,700,63.9z"/>
	<path class="st13" d="M700,56.8c0,0.3,0,0.7,0,1h-0.1C699.9,57.5,699.9,57.1,700,56.8C699.9,56.8,700,56.8,700,56.8z"/>
	<rect x="61.9" y="21.5" width="5.7" height="14"/>
	<rect x="71" y="28.8" transform="matrix(0.1954 -0.9807 0.9807 0.1954 29.3835 95.4881)" width="3.7" height="2"/>
	<polygon points="59.8,29.1 59.8,30.5 59.9,32 60.2,33 60.9,32.8 	"/>
	<polyline points="66.8,83.1 64,83.4 64.9,88.3 66,88 66.8,86.4 67,85.4 67,83.4 	"/>
</g>
<g id="Layer_3">
</g>
</svg>
