<?xml version="1.0" encoding="utf-8"?>
<!-- Generator: Adobe Illustrator 28.0.0, SVG Export Plug-In . SVG Version: 6.00 Build 0)  -->
<svg version="1.1" xmlns="http://www.w3.org/2000/svg" xmlns:xlink="http://www.w3.org/1999/xlink" x="0px" y="0px"
	 viewBox="0 0 775.2 100" style="enable-background:new 0 0 775.2 100;" xml:space="preserve">
<style type="text/css">
	.st0{display:none;}
	.st1{display:inline;}
	.st2{display:inline;fill:none;}
	.st3{font-family:'SportingGrotesque-Bold';}
	.st4{font-size:37.5553px;}
	.st5{font-family:'SportingGrotesque-Regular';}
	.st6{font-size:12px;}
	.st7{fill:none;}
	.st8{font-family:'Dogica_Pixel';}
	.st9{font-size:40px;}
	.st10{font-family:'NeulisCursive-Italic';}
	.st11{font-size:54.7047px;}
	.st12{font-size:45px;}
	.st13{fill:#FFFFFF;}
</style>
<g id="Layer_1" class="st0">
	<g id="Layer_1_00000090276093819756378210000010670431653154065842_" class="st1">
		<g id="Layer_1_00000137825011056906411780000006006002828999248296_" class="st0">
			<rect x="76.1" y="-33.4" class="st2" width="629.2" height="201.8"/>
			<g class="st1">
				<text transform="matrix(1 0 0 1 137.7028 54.2197)" class="st3 st4">Recipes of the Week</text>
				<text transform="matrix(1 0 0 1 298.0901 89.2961)" class="st5 st6">10 weeks of delicious dishes</text>
			</g>
		</g>
		<g id="Layer_2_00000021835445684010811090000016307974674334453153_">
			<rect x="-0.6" y="22.2" class="st7" width="808.7" height="122.2"/>
			<text transform="matrix(1 0 0 1 238.7535 22.1108)" class="st8 st9">Stir-fried </text>
			<text transform="matrix(1 0 0 1 111.9535 87.7109)" class="st8 st9">Vermicelli Noodles</text>
			<text transform="matrix(1 0 0 1 681.9535 87.7109)" class="st10 st11"> </text>
			<rect x="205.2" y="114.1" class="st7" width="371" height="74.7"/>
			<text transform="matrix(1 0 0 1 337.6627 149.4216)" style="font-family:'GB18030Bitmap'; font-size:35.3319px;">炒米粉</text>
		</g>
	</g>
	<g id="Layer_2_00000072966149707711585220000009804642204603007129_" class="st1">
	</g>
</g>
<g id="Layer_2">
	<rect x="93.6" y="34.3" class="st7" width="604.6" height="123.9"/>
	<text transform="matrix(1 0 0 1 93.5725 69.9209)" class="st3 st12">Recipe of the Week</text>
	<path d="M67.3,43.2c0.1-0.1,0.2-0.1,0.2-0.1c0.1,0,0.2-0.1,0.3-0.1c0,0.1,0,0.3-0.1,0.4c-0.6,0.3-0.4,0.9-0.5,1.4
		c0,0.2,0,0.5,0,0.7c0,0.6,0,0.6,0.7,0.6c-0.1,0.5-0.2,1-0.3,1.5c-0.2,1.2-0.3,2.4-0.4,3.5c-0.1,0.5-0.2,1-0.3,1.5c0,0,0,0.1,0,0.1
		c-0.1,0.5-0.1,0.9-0.2,1.4c-0.1,0.4-0.2,0.9-0.2,1.3c0,0.5,0.1,1,0.2,1.4c0,0.1,0,0.3,0,0.4c-0.1,0.8-0.1,1.6-0.2,2.4
		c0,0,0,0.1,0,0.1c0,0.3,0.1,0.7,0.1,1c-0.1,0.6,0.3,1.1,0.2,1.7c0,1,0,1.9,0,2.9c0,0.2,0,0.3,0,0.5c0,0.2,0,0.4-0.2,0.5
		c-0.1,0.1-0.2,0.5-0.1,0.6c0.3,0.3,0.2,0.5,0.1,0.8c0.7,0.3,0.7,0.3,0.6,1.1c-0.1,0.8-0.2,1.7-0.2,2.5c-0.1,3-0.3,5.9,0,8.9
		c0.1,1,0.2,1.9,0.4,2.9c0,0.1,0,0.2,0,0.2c-0.4,0.6-0.2,1.4-0.3,2.1c-0.1,1-0.5,1.9-1.1,2.7c-0.6,0.7-1.8,1-2.8,0.6
		c-1-0.4-1.4-1.2-1.5-2.1c-0.2-0.9-0.2-1.8-0.3-2.6c0,0,0-0.1,0-0.1c-0.5-0.7-0.1-1.5,0-2.2c0.1-1.3,0.4-2.6,0.6-3.9
		c0.1-0.9,0.2-1.8,0.3-2.7c0.1-2.2,0.2-4.4,0.4-6.5c0.1-1.4,0.4-2.7,0.6-4.1c0.2-1.7,0.6-3.4,0.7-5.1c0.3-2.7,0.5-5.5,0.7-8.2
		c0.1-2,0-4-0.3-6c-0.3-2.1-1-4.2-1.8-6.2c-0.5-1.2-1-2.4-1.6-3.6c-1.2-2.4-1.5-4.9-1.3-7.5c0.1-1.9,0.3-3.8,0.9-5.6
		c0.4-1.2,1-2.4,1.5-3.6c0.5-1.1,1.2-2.2,2.1-3c0.9-0.8,2-1.6,3.2-1.9c1-0.2,2,0,3,0.5c0.9,0.6,1.6,1.4,2.2,2.3c0.6,0.9,1,2,1.3,3.1
		c0.4,1.4,0.8,2.7,0.9,4.2c0.1,0.9,0,1.8,0,2.6c-0.1,1-0.2,1.9-0.4,2.9c-0.1,0.7-0.2,1.4-0.4,2c-0.1,0.5-0.4,1-0.6,1.5
		c-0.6,1.2-1.1,2.5-1.7,3.7c-0.1,0.1,0,0.3-0.1,0.4c-0.1,0.3,0,0.7-0.5,0.7c-0.1,0-0.2,0.2-0.3,0.3c-0.5,0.6-1,1.2-1.4,1.8
		c-0.2,0.3-0.3,0.6-0.6,0.9c-0.3,0.4-0.7,0.8-1,1.1c-0.4,0.3-0.7,0.6-0.4,1.1C67.4,42.8,67.3,43,67.3,43.2z M62.4,27.1
		c0,0.7-0.4,1.4-0.1,2c-0.1,0.4-0.1,0.6-0.2,0.9c0,0,0.1,0,0.1,0c0.1-0.2,0.2-0.3,0.3-0.5c0.6,0.3,0.2,0.6,0,0.8
		c0.1,0.1,0.2,0.2,0.3,0.2c0,0.2-0.1,0.4-0.1,0.5c0.1,0,0.1,0,0.2,0.1c0.3-0.5,0.3-1.2,0.5-1.8c0,0,0.1,0,0.1,0
		c0.1,0.5,0.2,0.9,0.3,1.4c-0.2,0-0.3,0-0.4,0c0,0.2,0.1,0.4,0.1,0.7c0,0,0.2,0,0.3,0c0.1-0.1,0.3-0.4,0.4-0.4
		c0.4,0.1,0.3-0.2,0.4-0.4c0.1-0.2,0.2-0.4,0.4-0.6c0.1,0.2,0.3,0.4,0.4,0.5c0,0,0,0,0.1,0c0.1-0.2,0.2-0.4,0.3-0.6
		c0.1,0.2,0.2,0.3,0.3,0.4c0.7-0.3,0-1,0.6-1.3c0.1,0.1,0.2,0.1,0.3,0.2c0.1-0.6,0.2-1.1,0.3-1.5c-0.2-0.5-0.4-1-0.5-1.6
		c-0.1-0.6,0-1.3,0-2c0-0.1,0-0.2-0.1-0.2c-0.3-0.1-0.3-0.4-0.3-0.7c0-0.4-0.3-0.5-0.6-0.6c-0.3-0.1-0.6,0-0.7,0.4
		c-0.1,0.3-0.3,0.5-0.4,0.7c-0.1,0.2-0.2,0.3-0.3,0.4c-0.1,0.2-0.2,0.3-0.4,0.6c0.1,0.7-0.2,1.8-0.5,1.8c-0.1-0.2-0.2-0.3-0.2-0.5
		c-0.2,0.1-0.3,0.2-0.5,0.3c0,0,0,0.1,0,0.2c-0.1,0.3-0.1,0.6-0.2,1c0,0-0.1,0-0.1,0C62.5,27.5,62.5,27.3,62.4,27.1z M66.4,87.1
		C66.9,86,67,85,67,83.9c0-0.1-0.1-0.2-0.2-0.2c-0.7-0.1-1.4,0-2.1,0.2c0.2,0.1,0.5,0.2,0.7,0.3c0.1,0,0.3,0,0.4,0
		c-0.1,0.2-0.1,0.3-0.2,0.5c-0.1,0.1-0.1,0.2-0.2,0.3c-0.5,0.3-0.6,0.7-0.3,1.2c0.1,0,0.2,0,0.5,0c-0.1,0.2-0.1,0.3-0.1,0.4
		c-0.3,0.4-0.1,0.6,0.2,0.9c0.1,0.1,0.3,0.1,0.3,0c0.1,0,0.1-0.2,0.2-0.3c0.1-0.1,0.1-0.3,0.1-0.5c0,0,0.1,0,0.1,0
		C66.4,86.8,66.4,86.9,66.4,87.1z M73.9,28.1c-0.4,0-0.6,0-0.9-0.1c0,0.1,0,0.3,0,0.4c-0.1,0.7-0.1,1.5-0.3,2.2
		c0,0.3-0.1,0.6,0.2,0.6c0.2,0,0.6-0.2,0.7-0.4c0.1-0.4,0.1-0.8,0.1-1.2c0-0.1,0.1-0.2,0.1-0.3c0.3,0.1,0.2-0.1,0.2-0.3
		C74,28.7,73.9,28.4,73.9,28.1z M60.2,32.6c0,0,0.1,0,0.1,0c-0.1-0.9-0.3-1.9-0.4-2.8c-0.1,0-0.1,0-0.2,0
		C59.8,30.8,59.9,31.7,60.2,32.6z M67.3,47.4c-0.3,0.2-0.4,0.8-0.3,1c0,0,0.1,0.1,0.1,0.1c0,0,0.1-0.1,0.1-0.1
		C67.2,48,67.3,47.7,67.3,47.4z M67.2,48.7c-0.5,0.1-0.5,0.3-0.2,0.7C67.1,49.2,67.2,48.9,67.2,48.7z"/>
	<path d="M61.4,34.9C61.1,33.9,61,33,61,32c0.1,0,0.1,0,0.2,0c0.1,0.9,0.3,1.9,0.4,2.8C61.5,34.9,61.4,34.9,61.4,34.9z"/>
	<path class="st13" d="M55.8,49.5c-0.1,0.3-0.1,0.5-0.2,0.7C55.3,49.8,55.3,49.7,55.8,49.5z"/>
	<path class="st13" d="M40.4,89.5c0.2-0.5-0.2-1,0.2-1.5C40.6,88.5,40.8,89,40.4,89.5z"/>
	<path class="st13" d="M34.9,44.8c0-0.5,0-1.1,0-1.6c0,0,0.1,0,0.1,0C35,43.7,35,44.3,34.9,44.8C35,44.8,34.9,44.8,34.9,44.8z"/>
	<path class="st13" d="M22.6,59.8c0,0.4,0,0.7,0,1.1c0,0-0.1,0-0.1,0c0-0.4,0-0.7-0.1-1.1C22.5,59.8,22.6,59.8,22.6,59.8z"/>
	<path class="st13" d="M22.5,62.6c0-0.4,0.1-0.8,0.1-1.2c0,0,0,0,0.1,0c0,0.4,0,0.8,0,1.2C22.6,62.6,22.5,62.6,22.5,62.6z"/>
	<path class="st13" d="M22.5,55.5c0,0.3,0,0.7,0,1c0,0-0.1,0-0.1,0C22.4,56.2,22.4,55.8,22.5,55.5C22.4,55.5,22.5,55.5,22.5,55.5z"
		/>
	<path d="M725,21.5c0.1,0.7,0.2,1.3,0.2,2c0.1,2.4,0.2,4.8,0.4,7.2c0.1,1.6,0.2,3.1,0.3,4.7c0,0.4,0.3,0.6,0.8,0.6
		c0.5,0,0.5-0.3,0.4-0.6c0-0.6,0-1.3,0-1.9c0-2.4-0.1-4.7-0.1-7.1c0-1,0.1-2,0.1-2.9c0-0.7,0-1.3,0-2c0-0.3,0.1-0.4,0.4-0.5
		c0.3,0,0.6,0,0.7,0.3c0.3,1.1,0.6,2.1,0.8,3.2c0.7,2.7,0.8,5.4,0.8,8.2c0,0.7-0.1,1.5-0.1,2.2c0,1.4-0.3,2.7-0.6,4
		c-0.3,1.3-0.7,2.5-1,3.8c-0.2,0.7-0.3,1.4-0.7,2c-0.1,0.2,0,0.5-0.1,0.8c-0.1,0.5-0.3,1-0.4,1.5c-0.3,1.2-0.6,2.3-0.7,3.5
		c-0.3,1.9-0.7,3.9-0.6,5.9c0,1.3,0.1,2.7,0.2,4c0.1,1.9,0.2,3.8,0.3,5.7c0.1,1.3,0,2.6,0.1,4c0.1,1.7,0.1,3.4,0.2,5.1
		c0,0.3,0.1,0.5,0.2,0.8c0.1,0.2,0.1,0.4,0.1,0.6c0,1.1,0,2.3,0.1,3.4c0.1,1.6,0.2,3.2,0.3,4.8c0,0.6,0.1,1.3,0.1,1.9
		c0,1.1,0.1,2.2,0.1,3.2c-0.1,1.3-0.2,2.6-0.3,3.9c-0.1,0.6-0.4,0.9-1,1c-0.5,0-1,0.1-1.5,0.1c-0.7,0-1-0.5-1.2-1
		c-0.2-0.4-0.3-0.9-0.4-1.3c-0.2-0.6-0.4-1.3-0.5-1.9c-0.1-0.5-0.1-1.1-0.1-1.6c0-0.5,0-1.1,0-1.6c0-1.7,0.1-3.3,0.1-5
		c0-1.2,0.1-2.4,0.1-3.6c0-0.9-0.1-1.8,0.1-2.7c0.6-2.8,0.2-5.6,0.3-8.3c0.1-2.8,0.2-5.6,0.2-8.5c0-2.1-0.3-4.3-0.6-6.4
		c-0.3-1.9-0.8-3.7-1.2-5.6c-0.3-1.2-0.7-2.4-1.1-3.5c-0.5-1.3-1-2.5-1.5-3.8c-0.7-2-1-4.2-1.1-6.3c0-1-0.1-2-0.1-2.9
		c0.1-2.3,0.3-4.6,0.8-6.9c0.1-0.5,0.2-1.1,0.4-1.6c0.1-0.3,0.5-0.5,0.8-0.7c0.4-0.2,0.5-0.1,0.6,0.4c0.1,1.3,0.2,2.5,0.3,3.8
		c0.1,1.1,0.1,2.1,0.1,3.2c0,1,0.1,2.1,0.1,3.1c0,1,0,2,0,3c0,0.2,0,0.5,0.2,0.6c0.2,0.2,0.5,0.3,0.7,0.3c0.3,0,0.4-0.3,0.4-0.5
		c0-0.8,0-1.5,0-2.3c0-1.5,0-3,0-4.5c0-1.8,0.1-3.6,0.1-5.4c0-0.6,0.1-1.1,0.2-1.7c0-0.1,0.2-0.2,0.3-0.3c0.1,0.1,0.2,0.2,0.2,0.3
		c0.1,2.1,0.2,4.1,0.3,6.2c0.1,1.7,0.2,3.4,0.3,5.2c0,0.8,0.1,1.7,0.2,2.5c0,0.4,0.4,0.4,0.7,0.4c0.3,0,0.5-0.2,0.5-0.5
		c0-0.6,0-1.3,0-1.9c0-0.8,0-1.5,0-2.3c0-2,0-4.1,0-6.1c0-1.1,0.2-2.2,0.3-3.3c0-0.1,0.1-0.3,0.1-0.4
		C724.9,21.5,724.9,21.5,725,21.5z M726,92.5c0.4-0.4,0.2-1,0.2-1.5C725.8,91.4,726.2,92,726,92.5z"/>
	<path d="M709.9,92.1c-1.1,0-2.1,0-3.1,0c0-0.2,0-0.4,0-0.6c0-1,0-1.9-0.1-2.9c0-0.4-0.1-0.8-0.2-1.2c0-0.6,0-1.3,0-1.9
		c0-0.9,0-1.9,0-2.8c0-4,0-7.9-0.1-11.9c0-1.1-0.2-2.2,0-3.3c0.1-1,0.2-2,0.2-3c0-1.2,0-2.3,0-3.5c0-3.2,0-6.4-0.1-9.6
		c0-3.1,0-6.3,0-9.4c0-1.9,0-3.9-0.1-5.8c0-1,0.1-2.1,0-3.1c0-1.2-0.1-2.4-0.1-3.6c0-2.3,0.1-4.5,0.2-6.8c0-0.7,0-1.4,0-2.1
		c0.1-1.7,0.2-3.4,0.2-5c0-0.9,0.1-1.8,0.1-2.6c0-1.4,0.1-2.9,0.1-4.3c0,0,0-0.1,0-0.1c0-0.2,0.1-0.4,0.4-0.4c0.3,0,0.3,0.2,0.4,0.4
		c0,1.5,0.1,3.1,0.2,4.6c0.1,3.4,0.3,6.8,0.4,10.2c0.1,3.2,0.2,6.4,0.2,9.6c0.1,3.5,0.2,6.9,0.3,10.4c0.1,2.4,0.1,4.8,0.2,7.2
		c0.1,2.4,0.1,4.9,0.2,7.3c0,1.4,0,2.8,0.1,4.3c0,1,0.1,1.9,0.1,2.9c0,0.8,0.1,1.6,0.2,2.4c0.2,1,0,2,0,3.1c0,1.9,0.1,3.9,0.2,5.8
		c0,1.6,0,3.1,0.1,4.7c0,2,0.1,3.9,0.2,5.9c0,0.4,0.1,0.9-0.2,1.3c-0.1,0.1,0,0.3,0,0.4C709.9,89.8,709.9,90.9,709.9,92.1z
		 M707.9,46.4C707.9,46.4,707.9,46.4,707.9,46.4c0.1-0.5,0.1-1.1,0.1-1.6c0,0-0.1,0-0.1,0C707.9,45.3,707.9,45.9,707.9,46.4z
		 M708.3,62.8c-0.1,0-0.1,0-0.2,0c0,0.4,0,0.7,0.1,1.1c0,0,0.1,0,0.1,0C708.3,63.5,708.3,63.2,708.3,62.8z M708.1,65.6
		c0,0,0.1,0,0.1,0c0-0.4,0-0.8,0-1.2c0,0,0,0-0.1,0C708.2,64.8,708.1,65.2,708.1,65.6z M708.1,58.5
		C708.1,58.5,708.1,58.4,708.1,58.5c-0.1,0.3-0.1,0.7-0.1,1c0,0,0.1,0,0.1,0C708.1,59.2,708.1,58.8,708.1,58.5z"/>
	<path d="M711.5,32.8c0.1,1.2,0.1,2.5,0.2,3.7c0.1,2.1,0.3,4.2,0.4,6.3c0.1,1.3,0.1,2.6,0.2,3.9c0.1,2.2,0.3,4.4,0.4,6.6
		c0.1,1.7,0.3,3.4,0.4,5.1c0.1,0.7,0.1,1.4,0.1,2.2c0.1,1.9,0.2,3.8,0.3,5.8c0,0.4,0.2,0.9,0.3,1.3c0.1,0.9,0.2,1.8,0.2,2.7
		c0.1,2.5,0.2,5.1,0.4,7.6c0.1,2.1,0.2,4.2,0.3,6.4c0.1,1,0.1,1.9,0.1,2.9c0,0.4-0.1,0.8-0.1,1.2c0,1.2,0.1,2.4,0.1,3.7
		c0,0.1-0.2,0.3-0.3,0.3c-0.3,0-0.6-0.1-0.9-0.1c-0.5,0-1.1,0-1.6,0.1c-0.3,0-0.4-0.1-0.5-0.3c-0.1-0.2-0.1-0.4-0.1-0.6
		c0-1,0.1-2.1-0.1-3.1c-0.4-1.5-0.3-3-0.4-4.4c-0.1-2.1-0.1-4.3-0.1-6.4c-0.1-2.2-0.2-4.4-0.3-6.7c0-1.1-0.2-2.1,0-3.2
		c0.1-0.9,0.2-1.7,0.1-2.6c-0.1-2.5-0.2-4.9-0.3-7.4c0-0.9,0-1.8-0.1-2.7c-0.1-1.7-0.3-3.4-0.3-5.1c-0.1-1.5-0.1-3-0.2-4.4
		c-0.1-1.9-0.2-3.8-0.2-5.7c-0.1-1.5-0.1-3-0.1-4.5c-0.1-2.2-0.2-4.4-0.3-6.6c0-1.3,0-2.5-0.1-3.8c0-3-0.1-5.9-0.1-8.9
		c0-2.3-0.1-4.7-0.2-7c0-0.2,0.1-0.4,0.2-0.5c0.3-0.2,0.6,0,0.6,0.4c0.1,0.8,0.1,1.7,0.2,2.5c0.1,1.4,0.2,2.7,0.3,4.1
		c0.2,2.8,0.5,5.6,0.7,8.3C711,26.9,711.3,29.8,711.5,32.8C711.5,32.8,711.5,32.8,711.5,32.8z"/>
	<path class="st13" d="M738.9,36.2c-0.3-0.9-0.4-1.9-0.4-2.8c0.1,0,0.1,0,0.2,0c0.1,0.9,0.3,1.9,0.4,2.8
		C739,36.1,738.9,36.1,738.9,36.2z"/>
	<path class="st13" d="M733.3,50.8c-0.1,0.3-0.1,0.5-0.2,0.7C732.8,51.1,732.8,51,733.3,50.8z"/>
	<path class="st13" d="M726,92.5c0.2-0.5-0.2-1,0.2-1.5C726.2,91.5,726.4,92,726,92.5z"/>
	<path class="st13" d="M712.4,46.1c0-0.5,0-1.1,0-1.6c0,0,0.1,0,0.1,0C712.5,45,712.5,45.6,712.4,46.1
		C712.5,46.1,712.4,46.1,712.4,46.1z"/>
	<path class="st13" d="M700.1,61.1c0,0.4,0,0.7,0,1.1c0,0-0.1,0-0.1,0c0-0.4,0-0.7-0.1-1.1C700,61.1,700.1,61.1,700.1,61.1z"/>
	<path class="st13" d="M700,63.9c0-0.4,0.1-0.8,0.1-1.2c0,0,0,0,0.1,0c0,0.4,0,0.8,0,1.2C700.1,63.9,700,63.9,700,63.9z"/>
	<path class="st13" d="M700,56.8c0,0.3,0,0.7,0,1c0,0-0.1,0-0.1,0C699.9,57.5,699.9,57.1,700,56.8C699.9,56.8,700,56.8,700,56.8z"/>
	<rect x="61.9" y="21.5" width="5.7" height="14"/>
	<rect x="71.9" y="28" transform="matrix(0.9807 0.1954 -0.1954 0.9807 7.2267 -13.6823)" width="2" height="3.7"/>
	<polygon points="59.8,29.1 59.8,30.5 59.9,32 60.2,33 60.9,32.8 	"/>
	<polyline points="66.8,83.1 64,83.4 64.9,88.3 66,88 66.8,86.4 67,85.4 67,83.4 	"/>
</g>
<g id="Layer_3">
</g>
</svg>
